<svg xmlns="http://www.w3.org/2000/svg" width="11.995" height="11.995" viewBox="0 0 11.995 11.995">
    <g data-name="그룹 983">
        <g data-name="그룹 982">
            <path data-name="패스 1454" d="M10.71 1.285H9.425V.428a.428.428 0 1 0-.857 0v.857H3.427V.428a.428.428 0 1 0-.857 0v.857H1.285A1.285 1.285 0 0 0 0 2.57v8.14A1.285 1.285 0 0 0 1.285 12h9.425A1.285 1.285 0 0 0 12 10.71V2.57a1.285 1.285 0 0 0-1.29-1.285zm.428 9.425a.428.428 0 0 1-.428.428H1.285a.428.428 0 0 1-.428-.428V5.141h10.281zm0-6.426H.857V2.57a.428.428 0 0 1 .428-.428H2.57V3a.428.428 0 1 0 .857 0v-.858h5.141V3a.428.428 0 1 0 .857 0v-.858h1.285a.428.428 0 0 1 .428.428v1.714z" style="fill:#333"/>
        </g>
    </g>
    <g data-name="그룹 985">
        <g data-name="그룹 984">
            <path data-name="패스 1455" d="M86.618 238.933h-.857a.428.428 0 1 0 0 .857h.857a.428.428 0 0 0 0-.857z" transform="translate(-83.191 -232.935)" style="fill:#333"/>
        </g>
    </g>
    <g data-name="그룹 987">
        <g data-name="그룹 986">
            <path data-name="패스 1456" d="M206.085 238.933h-.857a.428.428 0 0 0 0 .857h.857a.428.428 0 1 0 0-.857z" transform="translate(-199.659 -232.935)" style="fill:#333"/>
        </g>
    </g>
    <g data-name="그룹 989">
        <g data-name="그룹 988">
            <path data-name="패스 1457" d="M325.552 238.933h-.852a.428.428 0 0 0 0 .857h.857a.428.428 0 0 0 0-.857z" transform="translate(-316.127 -232.935)" style="fill:#333"/>
        </g>
    </g>
    <g data-name="그룹 991">
        <g data-name="그룹 990">
            <path data-name="패스 1458" d="M86.618 307.2h-.857a.428.428 0 1 0 0 .857h.857a.428.428 0 0 0 0-.857z" transform="translate(-83.191 -299.489)" style="fill:#333"/>
        </g>
    </g>
    <g data-name="그룹 993">
        <g data-name="그룹 992">
            <path data-name="패스 1459" d="M206.085 307.2h-.857a.428.428 0 0 0 0 .857h.857a.428.428 0 1 0 0-.857z" transform="translate(-199.659 -299.489)" style="fill:#333"/>
        </g>
    </g>
    <g data-name="그룹 995">
        <g data-name="그룹 994">
            <path data-name="패스 1460" d="M325.552 307.2h-.852a.428.428 0 0 0 0 .857h.857a.428.428 0 0 0 0-.857z" transform="translate(-316.127 -299.489)" style="fill:#333"/>
        </g>
    </g>
    <g data-name="그룹 997">
        <g data-name="그룹 996">
            <path data-name="패스 1461" d="M86.618 375.467h-.857a.428.428 0 1 0 0 .857h.857a.428.428 0 1 0 0-.857z" transform="translate(-83.191 -366.042)" style="fill:#333"/>
        </g>
    </g>
    <g data-name="그룹 999">
        <g data-name="그룹 998">
            <path data-name="패스 1462" d="M206.085 375.467h-.857a.428.428 0 0 0 0 .857h.857a.428.428 0 1 0 0-.857z" transform="translate(-199.659 -366.042)" style="fill:#333"/>
        </g>
    </g>
    <g data-name="그룹 1001">
        <g data-name="그룹 1000">
            <path data-name="패스 1463" d="M325.552 375.467h-.852a.428.428 0 1 0 0 .857h.857a.428.428 0 0 0 0-.857z" transform="translate(-316.127 -366.042)" style="fill:#333"/>
        </g>
    </g>
</svg>
