<svg xmlns="http://www.w3.org/2000/svg" width="24" height="24.001" viewBox="0 0 24 24.001">
    <path data-name="패스 14335" d="M569.586 224.481c.014-.018.018-.041.03-.06A11.941 11.941 0 0 0 566.92 207c-.114-.077-.221-.165-.337-.238-.041-.025-.084-.044-.126-.069a12.044 12.044 0 0 0-15.568 2.735 11.971 11.971 0 0 0-.03 14.99c.013.019.016.042.03.06s.057.061.084.094c.065.079.139.151.206.228a12.044 12.044 0 0 0 1.214 1.214c.084.073.164.151.251.222.214.175.437.335.661.495.11.078.218.159.33.233.22.145.445.279.674.409.132.076.266.149.4.22.22.114.443.222.67.323.161.072.325.137.49.2.213.083.425.166.643.236.2.066.4.118.6.173s.39.109.589.152c.25.054.506.091.762.129.161.024.32.057.484.074a12.169 12.169 0 0 0 1.222.068h.128a12.169 12.169 0 0 0 1.222-.068c.164-.018.322-.051.484-.074.256-.038.512-.075.762-.129.2-.043.393-.1.589-.152s.405-.108.6-.173c.218-.07.43-.153.643-.236.165-.064.329-.13.49-.2a12.122 12.122 0 0 0 1.744-.952c.112-.074.22-.155.33-.232.225-.16.449-.32.663-.5.086-.07.165-.148.249-.221a12.192 12.192 0 0 0 1.227-1.211c.067-.077.141-.149.206-.228.023-.03.053-.057.08-.091zm-.886-1.644a14.329 14.329 0 0 0-2.89-1.192 22.763 22.763 0 0 0 .442-3.845h4.263a10.246 10.246 0 0 1-1.815 5.038zm-3.144 2.942c-.066.04-.131.082-.2.121-.184.106-.376.2-.568.3-.1.049-.2.1-.3.143-.176.08-.356.154-.538.224l-.1.036a12.414 12.414 0 0 0 1.529-3.328 12.847 12.847 0 0 1 2.219.882 10.369 10.369 0 0 1-2.042 1.623zm-9.576.561c-.1-.045-.2-.094-.3-.143a9.623 9.623 0 0 1-.568-.3c-.067-.038-.132-.081-.2-.121a10.369 10.369 0 0 1-2.05-1.623 12.845 12.845 0 0 1 2.219-.882 12.414 12.414 0 0 0 1.529 3.328l-.1-.036a7.129 7.129 0 0 1-.53-.222zm-3.091-16.616c.107-.11.224-.208.336-.313.142-.132.28-.268.429-.392.123-.1.255-.193.382-.289.147-.111.292-.228.445-.33.134-.091.276-.169.413-.253.155-.095.308-.193.468-.279.142-.076.29-.141.436-.211.163-.078.324-.159.492-.229.107-.044.218-.078.327-.119a12.414 12.414 0 0 0-1.529 3.328 12.9 12.9 0 0 1-2.225-.885zm11.785-2.067c.147.07.3.134.439.211s.309.183.464.276.282.164.418.255.289.214.433.322.267.193.395.3.27.245.4.37.245.218.361.336l.023.026a12.9 12.9 0 0 1-2.225.885 12.414 12.414 0 0 0-1.529-3.328c.109.041.22.075.328.119.171.071.332.151.494.229zm-3.592 19.373v-4.462a18.453 18.453 0 0 1 2.671.309c-.666 2.138-1.653 3.612-2.671 4.154zm0-6.147V217.8h3.481a20.983 20.983 0 0 1-.394 3.435 20.292 20.292 0 0 0-3.087-.351zm0-4.772v-3.083a20.206 20.206 0 0 0 3.087-.353 20.983 20.983 0 0 1 .394 3.436zm0-4.768v-4.462c1.015.542 2 2.017 2.671 4.154a18.453 18.453 0 0 1-2.671.309zm-1.689-4.462v4.462a18.453 18.453 0 0 1-2.671-.309c.667-2.134 1.656-3.61 2.671-4.153zm0 6.147v3.083h-3.481a20.99 20.99 0 0 1 .394-3.436 20.207 20.207 0 0 0 3.087.354zm0 4.772v3.083a20.294 20.294 0 0 0-3.087.353 20.989 20.989 0 0 1-.394-3.435zm0 4.768v4.462c-1.015-.542-2-2.017-2.671-4.154a18.453 18.453 0 0 1 2.671-.307zm6.858-6.457a22.771 22.771 0 0 0-.442-3.846 14.314 14.314 0 0 0 2.895-1.194 10.351 10.351 0 0 1 1.809 5.04zm-14.479-5.04a14.292 14.292 0 0 0 2.894 1.194 22.771 22.771 0 0 0-.442 3.846h-4.262a10.344 10.344 0 0 1 1.81-5.039zm2.452 6.729a22.763 22.763 0 0 0 .442 3.845 14.329 14.329 0 0 0-2.89 1.192 10.246 10.246 0 0 1-1.815-5.037z" transform="translate(-548.238 -204.956)" style="fill:#fff;opacity:.5;"/>
</svg>
