<svg xmlns="http://www.w3.org/2000/svg" width="25" height="24" viewBox="0 0 25 24">
    <g data-name="그룹 8787">
        <path data-name="합치기 95" d="M-1987.292 20.888a.708.708 0 0 1-.708-.708.708.708 0 0 1 .708-.708h22.584a.708.708 0 0 1 .708.708.708.708 0 0 1-.708.708zm16.062-2.958a.708.708 0 0 1-.708-.708V.708a.708.708 0 0 1 .708-.708h4.137a.708.708 0 0 1 .708.708v16.514a.708.708 0 0 1-.708.708zm.708-1.416h2.721V1.416h-2.721zm-7.546 1.416a.708.708 0 0 1-.708-.708V6.133a.707.707 0 0 1 .708-.708h4.136a.708.708 0 0 1 .708.708v11.089a.708.708 0 0 1-.708.708zm.708-1.416h2.72V6.841h-2.72zm-7.548 1.416a.708.708 0 0 1-.708-.708V10.97a.708.708 0 0 1 .708-.708h4.137a.707.707 0 0 1 .708.708v6.251a.707.707 0 0 1-.708.708zm.708-1.416h2.721v-4.836h-2.721z" transform="translate(1988.5 2)" style="fill:#0076c9;stroke:transparent;stroke-miterlimit:10;"/>
        <path data-name="사각형 5536" transform="translate(.5)" style="fill:none;opacity:.2" d="M0 0h24v24H0z"/>
    </g>
</svg>
