<svg xmlns="http://www.w3.org/2000/svg" width="24" height="24" viewBox="0 0 24 24">
    <g data-name="그룹 8721" style="opacity:.5">
        <path data-name="패스 14336" d="M444.207 459.261h-3.33a.771.771 0 0 1-.757-.621l-.61-3.077a8.678 8.678 0 0 1-.694-.288l-2.608 1.744a.771.771 0 0 1-.974-.1l-2.355-2.355a.771.771 0 0 1-.1-.974l1.744-2.607c-.106-.229-.2-.461-.289-.694l-3.076-.611a.771.771 0 0 1-.621-.756V445.6a.771.771 0 0 1 .621-.756l3.076-.611c.086-.234.183-.466.289-.694l-1.744-2.608a.771.771 0 0 1 .1-.974l2.355-2.355a.77.77 0 0 1 .974-.1l2.608 1.744q.342-.159.694-.288l.61-3.077a.771.771 0 0 1 .757-.62h3.33a.771.771 0 0 1 .757.62l.61 3.077q.352.129.694.288l2.608-1.744a.77.77 0 0 1 .974.1l2.355 2.355a.771.771 0 0 1 .1.974l-1.744 2.608c.106.228.2.46.289.694l3.076.611a.771.771 0 0 1 .621.756v3.33a.771.771 0 0 1-.621.756l-3.076.611a9.074 9.074 0 0 1-.289.694l1.744 2.607a.771.771 0 0 1-.1.974l-2.355 2.355a.772.772 0 0 1-.974.1l-2.608-1.744c-.228.106-.46.2-.694.288l-.61 3.077a.771.771 0 0 1-.757.613zm-2.7-1.542h2.065l.573-2.894a.773.773 0 0 1 .531-.587 7.324 7.324 0 0 0 1.284-.533.772.772 0 0 1 .791.039l2.454 1.641 1.46-1.46-1.641-2.453a.771.771 0 0 1-.04-.791 7.215 7.215 0 0 0 .533-1.284.769.769 0 0 1 .588-.53l2.893-.575v-2.064l-2.893-.574a.771.771 0 0 1-.588-.53 7.237 7.237 0 0 0-.533-1.285.769.769 0 0 1 .04-.79l1.641-2.454-1.46-1.46-2.454 1.641a.769.769 0 0 1-.791.039 7.26 7.26 0 0 0-1.283-.533.772.772 0 0 1-.532-.588l-.573-2.893h-2.062l-.573 2.893a.772.772 0 0 1-.532.588 7.26 7.26 0 0 0-1.283.533.771.771 0 0 1-.791-.039l-2.454-1.641-1.46 1.46 1.641 2.454a.769.769 0 0 1 .04.79 7.242 7.242 0 0 0-.533 1.285.771.771 0 0 1-.588.53l-2.893.574v2.064l2.893.575a.769.769 0 0 1 .588.53 7.219 7.219 0 0 0 .533 1.284.771.771 0 0 1-.04.791l-1.641 2.453 1.46 1.46 2.454-1.641a.774.774 0 0 1 .791-.039 7.324 7.324 0 0 0 1.284.533.773.773 0 0 1 .531.587zm12.262-8.794zm-11.229 1.765a3.43 3.43 0 1 1 3.43-3.43 3.434 3.434 0 0 1-3.428 3.431zm0-5.318a1.888 1.888 0 1 0 1.888 1.888 1.891 1.891 0 0 0-1.886-1.887z" style="fill:#fff" transform="translate(-430.542 -435.261)"/>
    </g>
</svg>
