<svg xmlns="http://www.w3.org/2000/svg" width="24" height="25" viewBox="0 0 24 25">
    <g data-name="그룹 8785">
        <path data-name="합치기 94" d="M-1977.843 20.014a3.967 3.967 0 0 1 .438-1.817l-4.018-3.17a3.969 3.969 0 0 1-2.591.959A3.991 3.991 0 0 1-1988 12a3.991 3.991 0 0 1 3.987-3.986 3.969 3.969 0 0 1 2.592.96l4.017-3.17a3.965 3.965 0 0 1-.439-1.817A3.99 3.99 0 0 1-1973.857 0a3.991 3.991 0 0 1 3.987 3.986 3.992 3.992 0 0 1-3.987 3.987 3.969 3.969 0 0 1-2.591-.959l-4.018 3.17a3.963 3.963 0 0 1 .438 1.816 3.964 3.964 0 0 1-.439 1.817l4.017 3.169a3.967 3.967 0 0 1 2.591-.96 3.992 3.992 0 0 1 3.987 3.987 3.991 3.991 0 0 1-3.985 3.987 3.991 3.991 0 0 1-3.986-3.986zm1.542 0a2.447 2.447 0 0 0 2.444 2.444 2.448 2.448 0 0 0 2.446-2.444 2.448 2.448 0 0 0-2.446-2.446 2.448 2.448 0 0 0-2.443 2.446zM-1986.458 12a2.447 2.447 0 0 0 2.445 2.444 2.447 2.447 0 0 0 2.444-2.444 2.447 2.447 0 0 0-2.444-2.444 2.447 2.447 0 0 0-2.445 2.444zm10.157-8.014a2.448 2.448 0 0 0 2.444 2.446 2.448 2.448 0 0 0 2.446-2.446 2.447 2.447 0 0 0-2.446-2.444 2.447 2.447 0 0 0-2.443 2.444z" transform="translate(1990.935 .5)" style="fill:#0076c9;stroke:transparent;stroke-miterlimit:10;"/>
        <path data-name="사각형 5534" transform="translate(0 .5)" style="fill:none;opacity:.2" d="M0 0h24v24H0z"/>
    </g>
</svg>
