<svg xmlns="http://www.w3.org/2000/svg" width="24" height="24" viewBox="0 0 24 24">
    <g data-name="그룹 8786">
        <path data-name="합치기 93" d="M-1979.035 24h-.031a.815.815 0 0 1-.479-.189l-4.29-3.581a11.627 11.627 0 0 1-4.132-8.283l-.012-.18c-.01-.146-.021-.292-.021-.44V3.61a.82.82 0 0 1 .274-.611.82.82 0 0 1 .637-.2l4.436.5 3.043-3.049a.823.823 0 0 1 .276-.189.837.837 0 0 1 .314-.061.836.836 0 0 1 .314.061.823.823 0 0 1 .276.189l3.042 3.042 4.436-.5a.824.824 0 0 1 .637.2.821.821 0 0 1 .273.611v7.715c0 .148-.009.294-.02.44l-.012.18a11.63 11.63 0 0 1-4.132 8.283l-4.29 3.581a.817.817 0 0 1-.479.189h-.062zm.835-2.572 2.945-2.459a9.972 9.972 0 0 0 3.462-6.248h-6.406zm-4.584-2.459 2.944 2.459v-8.707h-6.407a9.974 9.974 0 0 0 3.463 6.248zm11.1-7.888V4.526l-3.917.44a.825.825 0 0 1-.671-.235L-1978.2 2.8v8.284zm-14.682 0h6.521V2.8l-1.933 1.934a.825.825 0 0 1-.67.235l-3.917-.44z" transform="translate(1991.02)" style="fill:#fff;opacity:.5"/>
        <path data-name="사각형 5535" style="fill:none;opacity:.2" d="M0 0h24v24H0z"/>
    </g>
</svg>
